<svg width="114" height="18" viewBox="0 0 114 18" fill="none" xmlns="http://www.w3.org/2000/svg">
<path d="M3.13502 17.0487C1.31059 18.1026 0 17.2244 0 15.6623C0 13.9994 0 9.00999 0 9.00999C0 9.00999 0 4.02055 0 2.35768C0 0.79563 1.30978 -0.0825642 3.13502 0.971268C5.97654 2.61219 14.5003 7.53658 14.5003 7.53658C15.6336 8.19116 15.6336 9.82801 14.5003 10.4826C14.5003 10.4834 5.97654 15.4078 3.13502 17.0487Z" fill="#00C1FF"/>
<path d="M12.5169 17.0473C10.6924 18.1011 9.38184 17.2229 9.38184 15.6608C9.38184 13.998 9.38184 9.00853 9.38184 9.00853C9.38184 9.00853 9.38184 4.01909 9.38184 2.35621C9.38184 0.794165 10.6916 -0.084029 12.5169 0.969803C15.2958 2.57495 23.6325 7.39119 23.6325 7.39119C24.8773 8.11001 24.8773 9.90705 23.6325 10.6259C23.6317 10.6259 15.2958 15.4421 12.5169 17.0473Z" fill="#BCEC30"/>
<mask id="mask0_1_1079" style="mask-type:alpha" maskUnits="userSpaceOnUse" x="9" y="0" width="16" height="18">
<path d="M12.5169 17.0473C10.6924 18.1011 9.38184 17.2229 9.38184 15.6608C9.38184 13.998 9.38184 9.00853 9.38184 9.00853C9.38184 9.00853 9.38184 4.01909 9.38184 2.35621C9.38184 0.794165 10.6916 -0.084029 12.5169 0.969803C15.2958 2.57495 23.6325 7.39119 23.6325 7.39119C24.8773 8.11001 24.8773 9.90705 23.6325 10.6259C23.6317 10.6259 15.2958 15.4421 12.5169 17.0473Z" fill="#6FE4FF"/>
</mask>
<g mask="url(#mask0_1_1079)">
<g filter="url(#filter0_f_1_1079)">
<path d="M3.13551 17.0487C1.31108 18.1026 0.000488281 17.2244 0.000488281 15.6623C0.000488281 13.9994 0.000488281 9.00999 0.000488281 9.00999C0.000488281 9.00999 0.000488281 4.02055 0.000488281 2.35768C0.000488281 0.79563 1.31027 -0.0825642 3.13551 0.971268C5.97703 2.61219 14.5008 7.53658 14.5008 7.53658C15.6341 8.19116 15.6341 9.82801 14.5008 10.4826C14.5008 10.4834 5.97703 15.4078 3.13551 17.0487Z" fill="#99D100"/>
</g>
</g>
<path d="M30.5111 11.9784L30.8289 11.2547C31.0456 10.7626 31.4357 10.6323 31.9269 10.9942C32.8659 11.689 34.4117 12.1955 36.4775 12.1955C38.24 12.1955 38.9913 11.7468 38.9913 11.2113C38.9913 10.6034 38.3701 10.4442 37.3443 10.3139L35.004 10.0099C32.1869 9.63361 30.7711 8.62042 30.7711 6.85456C30.7711 4.95844 32.3169 3.45312 35.8997 3.45312C37.8933 3.45312 39.1791 3.75708 40.017 4.07552C40.9416 4.43737 41.0716 4.74133 41.0716 5.49399V6.47824C41.0716 7.08615 40.8549 7.28879 40.2626 7.28879H39.598C38.9913 7.28879 38.789 7.07168 38.789 6.47824V6.1598C38.3989 6.02953 37.431 5.84137 36.3042 5.84137C34.325 5.84137 33.3715 6.20323 33.3715 6.81114C33.3715 7.25984 33.9494 7.52038 35.004 7.66512L37.301 7.96908C40.0748 8.31646 41.5483 9.15596 41.5483 11.1824C41.5483 13.2377 39.598 14.5548 36.1164 14.5548C33.5593 14.5548 31.5079 13.7443 30.6845 12.9916C30.3955 12.7021 30.3522 12.3403 30.5111 11.9784Z" fill="white"/>
<path d="M55.8783 14.3808H54.6936C54.1158 14.3808 53.928 14.294 53.639 13.8597L51.4143 10.5741C51.0964 10.1254 50.8508 10.0096 50.1863 10.0096H47.9615V13.5702C47.9615 14.1782 47.7448 14.3808 47.1525 14.3808H46.3002C45.6934 14.3808 45.4911 14.1637 45.4911 13.5702V2.88828H44.6966C44.0898 2.88828 43.8876 2.67117 43.8876 2.07772V1.35401C43.8876 0.746096 44.1043 0.543457 44.6966 0.543457H47.167C47.7737 0.543457 47.976 0.76057 47.976 1.35401V7.60687H49.9696C50.6341 7.60687 50.8653 7.50555 51.1976 7.04238L53.0612 4.16201C53.3646 3.71331 53.5524 3.62646 54.1302 3.62646H55.3148C55.9649 3.62646 56.0805 4.14753 55.7194 4.68308L53.639 7.83846C53.4223 8.14242 53.1623 8.46085 52.9167 8.72138C53.1767 8.9385 53.5379 9.30035 53.6824 9.51747L56.2828 13.3531C56.6439 13.8597 56.5139 14.3808 55.8783 14.3808Z" fill="white"/>
<path d="M60.1056 16.3492V15.64C60.1056 15.0321 60.3223 14.8294 60.9146 14.8294H61.9404C62.5616 14.8294 62.8649 14.6992 63.0961 14.207L63.2261 13.932L58.3143 4.62512C58.0109 4.06062 58.2565 3.64087 58.8921 3.64087H60.0045C60.5824 3.64087 60.8424 3.74219 61.0591 4.16194L63.1105 8.38841C63.5873 9.35818 64.1218 10.4727 64.5407 11.4425C64.9741 10.5016 65.4653 9.41608 65.9276 8.47526L68.0224 4.16194C68.2102 3.75666 68.4991 3.64087 69.077 3.64087H70.1894C70.8395 3.64087 71.0706 4.0751 70.7672 4.62512L65.1764 15.2637C64.5263 16.494 63.7895 17.1743 62.1137 17.1743H60.8857C60.3079 17.1743 60.1056 16.9571 60.1056 16.3492Z" fill="white"/>
<path d="M85.874 9.01122C85.874 12.4271 83.3458 14.5548 79.9364 14.5548C78.4629 14.5548 77.336 14.193 76.5415 13.7443V16.6681C76.5415 17.276 76.3248 17.4786 75.7325 17.4786H74.8801C74.2734 17.4786 74.0711 17.2615 74.0711 16.6681V5.98611H73.2765C72.6698 5.98611 72.4675 5.769 72.4675 5.17556V4.45185C72.4675 3.84393 72.6842 3.64129 73.2765 3.64129H75.3569C75.9636 3.64129 76.1659 3.8584 76.1659 4.45185V4.50974C76.9749 3.9742 78.2028 3.45312 79.9364 3.45312C83.3458 3.4676 85.874 5.59531 85.874 9.01122ZM83.3025 9.01122C83.3025 7.01378 81.6989 5.89927 79.7053 5.89927C78.2751 5.89927 77.1049 6.50718 76.5559 6.99931V11.0376C77.1193 11.5297 78.2751 12.1377 79.7053 12.1377C81.6989 12.1232 83.3025 11.0087 83.3025 9.01122Z" fill="white"/>
<path d="M99.3331 8.17189C99.3331 8.77981 99.1164 8.98245 98.5241 8.98245H97.6718C97.065 8.98245 96.8627 8.80876 96.8627 8.17189C96.8627 6.57973 96.256 5.87049 94.8113 5.87049C93.4389 5.87049 92.2976 6.72447 91.662 7.76661V13.5708C91.662 14.1787 91.4453 14.3813 90.8529 14.3813H90.0006C89.3938 14.3813 89.1916 14.1642 89.1916 13.5708V5.98629H88.397C87.7903 5.98629 87.588 5.76917 87.588 5.17573V4.45202C87.588 3.8441 87.8047 3.64146 88.397 3.64146H90.4773C91.0841 3.64146 91.2863 3.85858 91.2863 4.45202V5.14678C92.052 4.2928 93.2222 3.46777 95.2158 3.46777C98.134 3.46777 99.3331 5.20468 99.3331 8.17189Z" fill="white"/>
<path d="M100.866 9.0114C100.866 5.82707 103.553 3.46777 107.122 3.46777C110.661 3.46777 113.334 5.82707 113.334 9.0114C113.334 12.2102 110.647 14.5695 107.122 14.5695C103.553 14.5695 100.866 12.2102 100.866 9.0114ZM110.878 9.0114C110.878 7.1587 109.245 5.8126 107.122 5.8126C104.955 5.8126 103.322 7.17317 103.322 9.0114C103.322 10.8786 104.955 12.2391 107.122 12.2391C109.26 12.2391 110.878 10.8786 110.878 9.0114Z" fill="white"/>
<defs>
<filter id="filter0_f_1_1079" x="-8.92896" y="-8.41871" width="33.2092" height="34.8574" filterUnits="userSpaceOnUse" color-interpolation-filters="sRGB">
<feFlood flood-opacity="0" result="BackgroundImageFix"/>
<feBlend mode="normal" in="SourceGraphic" in2="BackgroundImageFix" result="shape"/>
<feGaussianBlur stdDeviation="4.46473" result="effect1_foregroundBlur_1_1079"/>
</filter>
</defs>
</svg>
