<svg xmlns="http://www.w3.org/2000/svg">
    <symbol width="51" height="52" viewBox="0 0 51 52" fill="none" id="default">
        <g id="Group 11">
            <rect id="Rectangle 8" y="0.750977" width="51" height="51" fill="#313131"/>
            <g id="Group 10">
                <path id="Vector 10" d="M23 32.751V18.7207L34 17.751V29.751" stroke="#4E4E4E"/>
                <ellipse id="Ellipse 5" cx="19.5" cy="32.751" rx="3.5" ry="2" stroke="#4E4E4E"/>
                <ellipse id="Ellipse 6" cx="30.5" cy="29.751" rx="3.5" ry="2" stroke="#4E4E4E"/>
            </g>
        </g>
    </symbol>

    <symbol width="16" height="14" viewBox="0 0 16 14" fill="none" id="like">
        <path id="Vector 13" d="M8.34372 2.00669H8.36529C9.29718 1.19273 11.7563 -0.0832586 13.9565 1.51832C17.3111 3.96019 14.2458 9.25098 8.36529 12.751H8.34372M8.34378 2.00669H8.32221C7.39032 1.19273 4.93121 -0.0832586 2.73102 1.51832C-0.623552 3.96019 2.44172 9.25098 8.32221 12.751H8.34378" stroke="#4E4E4E"/>
    </symbol>

    <symbol width="40" height="40" viewBox="0 0 40 40" fill="none" id="exit">
        <g id="Group 48096421">
            <g id="Group 48096420">
                <path id="Rectangle 3774" d="M25.6711 16.046V14.7419C25.6711 13.2276 24.4435 12 22.9292 12H16.7419C15.2276 12 14 13.2276 14 14.7419V26.0645C14 27.5788 15.2276 28.8065 16.7419 28.8065H22.9292C24.4435 28.8065 25.6711 27.5788 25.6711 26.0645V24.6048M18.3572 20.3254H33.2963M33.2963 20.3254L30.1062 23.5155M33.2963 20.3254L30.1062 17.1353" stroke="white" stroke-linecap="round" stroke-linejoin="round"/>
            </g>
            <circle id="Ellipse 560" cx="20" cy="20" r="19.5" stroke="white"/>
        </g>
    </symbol>

    <symbol width="20" height="18" viewBox="0 0 20 18" fill="none" id="case">
        <g id="Group 9">
            <path id="Vector 8" d="M19.5 15L14.5 12.1132V17.8868L19.5 15ZM10.1632 12.0833L9.70863 12.2916L10.1632 12.0833ZM7.33683 5.91673L6.8823 6.12505L7.33683 5.91673ZM0.5 3.5H2.79151V2.5H0.5V3.5ZM6.8823 6.12505L9.70863 12.2916L10.6177 11.8749L7.79137 5.7084L6.8823 6.12505ZM14.7085 15.5H15V14.5H14.7085V15.5ZM9.70863 12.2916C10.6047 14.2466 12.5579 15.5 14.7085 15.5V14.5C12.949 14.5 11.3508 13.4745 10.6177 11.8749L9.70863 12.2916ZM2.79151 3.5C4.55105 3.5 6.14918 4.52552 6.8823 6.12505L7.79137 5.7084C6.89533 3.75341 4.94205 2.5 2.79151 2.5V3.5Z" fill="#696969"/>
            <path id="Vector 9" d="M19.5 3L14.5 5.88675V0.113249L19.5 3ZM10.1632 5.91673L9.70863 5.7084L10.1632 5.91673ZM7.33683 12.0833L6.8823 11.8749L7.33683 12.0833ZM0.5 14.5H2.79151V15.5H0.5V14.5ZM6.8823 11.8749L9.70863 5.7084L10.6177 6.12505L7.79137 12.2916L6.8823 11.8749ZM14.7085 2.5H15V3.5H14.7085V2.5ZM9.70863 5.7084C10.6047 3.75341 12.5579 2.5 14.7085 2.5V3.5C12.949 3.5 11.3508 4.52552 10.6177 6.12505L9.70863 5.7084ZM2.79151 14.5C4.55105 14.5 6.14918 13.4745 6.8823 11.8749L7.79137 12.2916C6.89533 14.2466 4.94205 15.5 2.79151 15.5V14.5Z" fill="#696969"/>
        </g>
    </symbol>

    <symbol width="20" height="18" viewBox="0 0 20 18" fill="none" id="loop">
        <g id="Group 8">
            <path id="Ellipse 3" d="M10 3L5 0.113249V5.88675L10 3ZM7 14.5C3.96243 14.5 1.5 12.0376 1.5 9H0.5C0.5 12.5899 3.41015 15.5 7 15.5V14.5ZM1.5 9C1.5 5.96243 3.96243 3.5 7 3.5V2.5C3.41015 2.5 0.5 5.41015 0.5 9H1.5Z" fill="#696969"/>
            <path id="Ellipse 4" d="M10 15L15 17.8868V12.1132L10 15ZM13 3.5C16.0376 3.5 18.5 5.96243 18.5 9H19.5C19.5 5.41015 16.5899 2.5 13 2.5V3.5ZM18.5 9C18.5 12.0376 16.0376 14.5 13 14.5V15.5C16.5899 15.5 19.5 12.5899 19.5 9H18.5Z" fill="#696969"/>
        </g>
    </symbol>

    <symbol width="16" height="14" viewBox="0 0 16 14" fill="none" id="next">
        <g id="Group 7">
            <path id="Vector 7" d="M15 2V12.5" stroke="white"/>
            <path id="Polygon 1" d="M13 7L3.25 0.937823L3.25 13.0622L13 7Z" fill="#D9D9D9"/>
        </g>
    </symbol>

    <symbol width="15" height="20" viewBox="0 0 15 20" fill="none" id="play">
        <path id="Polygon 2" d="M15 10L-1.01012e-06 0.47372L-1.84293e-06 19.5263L15 10Z" fill="#D9D9D9"/>
    </symbol>

    <symbol width="16" height="14" viewBox="0 0 16 14" fill="none" id="prev">
        <g id="Group 6">
            <path id="Vector 7" d="M1 2V12.5" stroke="white"/>
            <path id="Polygon 1" d="M3 7L12.75 0.937823L12.75 13.0622L3 7Z" fill="#D9D9D9"/>
        </g>
    </symbol>

    <symbol id="volume" data-name="Layer 1" xmlns="http://www.w3.org/2000/svg" viewBox="0 0 200 200"><defs><style>.cls-1{fill:#231f20;}</style></defs>
        <path class="cls-1" d="M100,175.69a5,5,0,0,1-3.37-1.31L48.06,130H29.31a5,5,0,0,1-5-5V75a5,5,0,0,1,5-5H48.06L96.63,25.62A5,5,0,0,1,105,29.31V170.69a5,5,0,0,1-5,5ZM34.31,120H50a5,5,0,0,1,3.37,1.31l41.63,38V40.65l-41.63,38A5,5,0,0,1,50,80H34.31Z"/><path class="cls-1" d="M119.4,122.53a5,5,0,0,1-3.54-8.53,19.82,19.82,0,0,0,0-28,5,5,0,0,1,7.07-7.07,29.83,29.83,0,0,1,0,42.14A5,5,0,0,1,119.4,122.53Z"/><path class="cls-1" d="M137.08,140.21a5,5,0,0,1-3.54-8.54,44.78,44.78,0,0,0,0-63.34,5,5,0,1,1,7.07-7.07,54.78,54.78,0,0,1,0,77.48A5,5,0,0,1,137.08,140.21Z"/><path class="cls-1" d="M152,155.13a5,5,0,0,1-3.54-8.53,65.91,65.91,0,0,0,0-93.2,5,5,0,1,1,7.07-7.07,75.9,75.9,0,0,1,0,107.34A5,5,0,0,1,152,155.13Z"/>
    </symbol>

    <symbol width="15" height="19" viewBox="0 0 15 19" fill="none" id="pause">
        <rect width="5" height="19" fill="#D9D9D9"/>
        <rect x="10" width="5" height="19" fill="#D9D9D9"/>
    </symbol>


</svg>

