<svg xmlns="http://www.w3.org/2000/svg">
    <symbol width="51" height="52" viewBox="0 0 51 52" fill="none" id="default">
        <g id="Group 11">
            <rect id="Rectangle 8" y="0.750977" width="51" height="51" fill="#313131"/>
            <g id="Group 10">
                <path id="Vector 10" d="M23 32.751V18.7207L34 17.751V29.751" stroke="#4E4E4E"/>
                <ellipse id="Ellipse 5" cx="19.5" cy="32.751" rx="3.5" ry="2" stroke="#4E4E4E"/>
                <ellipse id="Ellipse 6" cx="30.5" cy="29.751" rx="3.5" ry="2" stroke="#4E4E4E"/>
            </g>
        </g>
    </symbol>

    <symbol width="16" height="14" viewBox="0 0 16 14" fill="none" id="like">
        <path id="Vector 13" d="M8.34372 2.00669H8.36529C9.29718 1.19273 11.7563 -0.0832586 13.9565 1.51832C17.3111 3.96019 14.2458 9.25098 8.36529 12.751H8.34372M8.34378 2.00669H8.32221C7.39032 1.19273 4.93121 -0.0832586 2.73102 1.51832C-0.623552 3.96019 2.44172 9.25098 8.32221 12.751H8.34378" stroke="#4E4E4E"/>
    </symbol>

    <symbol width="40" height="40" viewBox="0 0 40 40" fill="none" id="exit">
        <g id="Group 48096421">
            <g id="Group 48096420">
                <path id="Rectangle 3774" d="M25.6711 16.046V14.7419C25.6711 13.2276 24.4435 12 22.9292 12H16.7419C15.2276 12 14 13.2276 14 14.7419V26.0645C14 27.5788 15.2276 28.8065 16.7419 28.8065H22.9292C24.4435 28.8065 25.6711 27.5788 25.6711 26.0645V24.6048M18.3572 20.3254H33.2963M33.2963 20.3254L30.1062 23.5155M33.2963 20.3254L30.1062 17.1353" stroke="white" stroke-linecap="round" stroke-linejoin="round"/>
            </g>
            <circle id="Ellipse 560" cx="20" cy="20" r="19.5" stroke="white"/>
        </g>
    </symbol>
</svg>

